<svg width="105" height="56" viewBox="0 0 105 56" fill="none" xmlns="http://www.w3.org/2000/svg">
<rect width="20" height="10" transform="matrix(-1 0 0 1 76 25)" fill="#F5F5F5"/>
<rect width="20" height="10" transform="matrix(-1 0 0 1 54 1)" fill="#F5F5F5"/>
<rect width="20" height="10" transform="matrix(-1 0 0 1 44 13)" fill="#F5F5F5"/>
<rect width="20" height="10" transform="matrix(-1 0 0 1 66 13)" fill="#F5F5F5"/>
<rect width="20" height="10" transform="matrix(-1 0 0 1 32 25)" fill="#F5F5F5"/>
<rect width="20" height="10" transform="matrix(-1 0 0 1 64 37)" fill="#F5F5F5"/>
<rect width="20" height="10" transform="matrix(-1 0 0 1 42 37)" fill="#F5F5F5"/>
<rect width="20" height="10" transform="matrix(-1 0 0 1 20 37)" fill="#F5F5F5"/>
<rect width="20" height="10" transform="matrix(-1 0 0 1 54 25)" fill="#F5F5F5"/>
<rect x="-2.12132" width="21.8129" height="44.558" transform="matrix(-0.707107 -0.707107 -0.707107 0.707107 101.379 20.8714)" fill="#CFCDF2" stroke="#8D8BA9" stroke-width="3"/>
<circle r="3.10161" transform="matrix(-0.707107 -0.707107 -0.707107 0.707107 87.4547 9.21243)" fill="#8D8BA9"/>
<circle r="3.10161" transform="matrix(-0.707107 -0.707107 -0.707107 0.707107 71.3714 51.6136)" fill="#8D8BA9"/>
<circle r="3.10161" transform="matrix(-0.707107 -0.707107 -0.707107 0.707107 58.2124 38.4547)" fill="#8D8BA9"/>
<circle r="3.10161" transform="matrix(-0.707107 -0.707107 -0.707107 0.707107 100.614 22.3714)" fill="#8D8BA9"/>
<path d="M75.8309 31.1281C76.212 30.747 76.6678 30.5605 77.1981 30.5688C77.7243 30.573 78.41 30.7863 79.2552 31.2089C80.407 31.8221 81.4014 32.1163 82.2383 32.0914C83.0752 32.0583 83.8272 31.7082 84.4943 31.0411C85.1738 30.3616 85.5342 29.6076 85.5757 28.7789C85.613 27.9462 85.3271 27.1424 84.718 26.3676L86.0791 25.0066L85.1531 24.0806L83.7858 25.4478C82.9945 24.847 82.1617 24.5985 81.2875 24.702C80.4091 24.8015 79.5452 25.2759 78.6959 26.1252L79.8394 27.2687C80.4236 26.6846 81.0264 26.3593 81.6479 26.293C82.2694 26.2267 82.8163 26.4297 83.2886 26.9021C83.7817 27.3951 84.0303 27.9006 84.0344 28.4185C84.0427 28.9322 83.8189 29.417 83.3632 29.8728C82.9406 30.2954 82.4662 30.4963 81.94 30.4756C81.4138 30.4466 80.7323 30.2208 79.8953 29.7982C79.0584 29.3673 78.3396 29.1 77.7388 28.9965C77.138 28.8846 76.5911 28.9095 76.0981 29.071C75.6009 29.2285 75.1327 29.5268 74.6935 29.966C73.9933 30.6662 73.6412 31.441 73.637 32.2903C73.6287 33.1355 73.9643 33.9766 74.6438 34.8135L73.4568 36.0005L74.3766 36.9203L75.5636 35.7333C76.4047 36.4335 77.283 36.765 78.1987 36.7277C79.1143 36.6821 79.9823 36.2491 80.8027 35.4288L79.653 34.279C79.0771 34.855 78.4825 35.147 77.8693 35.1553C77.2561 35.1636 76.6719 34.8902 76.1167 34.335C75.574 33.7922 75.2777 33.235 75.228 32.6632C75.1783 32.0914 75.3792 31.5798 75.8309 31.1281Z" fill="#8D8BA9"/>
<rect x="-2.05831" y="0.513194" width="21.8129" height="44.558" transform="matrix(-0.857167 -0.515038 -0.515038 0.857167 94.6007 13.3657)" fill="#CFCDF2" stroke="#8D8BA9" stroke-width="3"/>
<circle r="3.10161" transform="matrix(-0.857167 -0.515038 -0.515038 0.857167 77.9514 5.82897)" fill="#8D8BA9"/>
<circle r="3.10161" transform="matrix(-0.857167 -0.515038 -0.515038 0.857167 72.6037 50.8616)" fill="#8D8BA9"/>
<circle r="3.10161" transform="matrix(-0.857167 -0.515038 -0.515038 0.857167 56.6521 41.2769)" fill="#8D8BA9"/>
<circle r="3.10161" transform="matrix(-0.857167 -0.515038 -0.515038 0.857167 93.903 15.4137)" fill="#8D8BA9"/>
<path d="M71.945 29.6639C72.2227 29.2018 72.6198 28.9106 73.1364 28.7904C73.6479 28.6671 74.3649 28.7083 75.2872 28.9138C76.5532 29.2302 77.5892 29.275 78.3952 29.0484C79.1993 28.8138 79.8442 28.2922 80.3301 27.4836C80.825 26.6599 80.9923 25.841 80.8321 25.027C80.6668 24.2099 80.1949 23.4992 79.4166 22.8947L80.4079 21.2449L79.2854 20.5704L78.2895 22.2278C77.3763 21.8363 76.5081 21.7966 75.6849 22.1086C74.8567 22.4176 74.1333 23.0868 73.5147 24.1165L74.9009 24.9494C75.3264 24.2412 75.8326 23.7798 76.4196 23.5651C77.0066 23.3504 77.5863 23.4151 78.1589 23.7591C78.7566 24.1183 79.1201 24.5486 79.2494 25.0501C79.3817 25.5466 79.2819 26.0711 78.9499 26.6235C78.6421 27.1358 78.2304 27.4456 77.7149 27.5528C77.1973 27.6519 76.4814 27.5977 75.567 27.3901C74.6507 27.1745 73.8886 27.0891 73.2806 27.1339C72.6706 27.1707 72.146 27.3272 71.7067 27.6032C71.2624 27.8763 70.8803 28.279 70.5604 28.8114C70.0504 29.6602 69.8961 30.4971 70.0975 31.3223C70.294 32.1444 70.8231 32.8793 71.6849 33.527L70.8203 34.9659L71.9352 35.6358L72.7998 34.1969C73.7853 34.6728 74.7178 34.7819 75.5972 34.5243C76.4746 34.2585 77.2121 33.6284 77.8096 32.634L76.4159 31.7965C75.9964 32.4947 75.4902 32.9219 74.8972 33.0783C74.3042 33.2347 73.6713 33.1107 72.9982 32.7063C72.3403 32.311 71.918 31.8419 71.7315 31.2992C71.5449 30.7564 71.6161 30.2113 71.945 29.6639Z" fill="#8D8BA9"/>
<rect x="-1.85535" y="1.02844" width="21.8129" height="44.558" transform="matrix(-0.961262 -0.275637 -0.275637 0.961262 84.1992 6.36779)" fill="#CFCDF2" stroke="#8D8BA9" stroke-width="3"/>
<circle r="3.10161" transform="matrix(-0.961262 -0.275637 -0.275637 0.961262 65.8294 3.83635)" fill="#8D8BA9"/>
<circle r="3.10161" transform="matrix(-0.961262 -0.275637 -0.275637 0.961262 72.3193 48.7186)" fill="#8D8BA9"/>
<circle r="3.10161" transform="matrix(-0.961262 -0.275637 -0.275637 0.961262 54.4305 43.5892)" fill="#8D8BA9"/>
<circle r="3.10161" transform="matrix(-0.961262 -0.275637 -0.275637 0.961262 83.7182 8.96589)" fill="#8D8BA9"/>
<path d="M66.1626 28.1548C66.3112 27.6366 66.6194 27.2526 67.0873 27.0027C67.5495 26.7512 68.2527 26.6054 69.1968 26.5653C70.5015 26.5432 71.5138 26.3184 72.2337 25.8909C72.9496 25.4562 73.4376 24.7854 73.6976 23.8786C73.9625 22.9549 73.9122 22.1206 73.5467 21.3758C73.1756 20.6293 72.5359 20.0649 71.6276 19.6825L72.1581 17.8323L70.8993 17.4713L70.3663 19.33C69.3829 19.1882 68.534 19.3746 67.8196 19.889C67.0996 20.4018 66.574 21.2355 66.243 22.3901L67.7975 22.8359C68.0252 22.0417 68.3948 21.465 68.9062 21.1057C69.4176 20.7464 69.9944 20.6589 70.6365 20.843C71.3067 21.0352 71.7692 21.3568 72.0239 21.8077C72.2802 22.253 72.3196 22.7855 72.1419 23.405C71.9772 23.9795 71.6597 24.3853 71.1894 24.6223C70.7152 24.852 70.0096 24.9849 69.0727 25.0211C68.1318 25.05 67.3735 25.1647 66.7979 25.3654C66.2182 25.5588 65.7519 25.8457 65.399 26.226C65.0405 26.6048 64.7757 27.0927 64.6045 27.6897C64.3315 28.6416 64.3991 29.49 64.8073 30.2348C65.2098 30.9781 65.9111 31.551 66.9111 31.9536L66.4484 33.5673L67.6988 33.9258L68.1615 32.3121C69.2366 32.5168 70.1655 32.3808 70.9483 31.9043C71.727 31.4205 72.2763 30.621 72.5961 29.5058L71.0331 29.0576C70.8086 29.8405 70.4302 30.3843 69.8979 30.6888C69.3656 30.9933 68.7221 31.0374 67.9674 30.821C67.2295 30.6094 66.7003 30.2656 66.3796 29.7896C66.0589 29.3137 65.9866 28.7687 66.1626 28.1548Z" fill="#8D8BA9"/>
<rect x="-1.5" y="1.5" width="21.8129" height="44.558" transform="matrix(-1 0 0 1 70.2098 6.634)" fill="#CFCDF2" stroke="#8D8BA9" stroke-width="3"/>
<circle r="3.10161" transform="matrix(-1 0 0 1 51.4985 9.73561)" fill="#8D8BA9"/>
<circle r="3.10161" transform="matrix(-1 0 0 1 70.1082 51.0904)" fill="#8D8BA9"/>
<circle r="3.10161" transform="matrix(-1 0 0 1 51.4985 51.0904)" fill="#8D8BA9"/>
<circle r="3.10161" transform="matrix(-1 0 0 1 70.1082 9.73561)" fill="#8D8BA9"/>
<path d="M63.1236 32.7445C63.1236 32.2055 62.9331 31.7514 62.5523 31.3822C62.1773 31.0131 61.5415 30.6791 60.6451 30.3803C59.397 29.9994 58.4859 29.5043 57.9117 28.8949C57.3433 28.2797 57.0591 27.5004 57.0591 26.557C57.0591 25.5961 57.3374 24.808 57.8941 24.1928C58.4566 23.5775 59.2271 23.2113 60.2056 23.0941V21.1693H61.5152V23.1029C62.4995 23.2377 63.2642 23.6508 63.8091 24.3422C64.3599 25.0336 64.6353 25.9799 64.6353 27.1811H63.0181C63.0181 26.3549 62.8218 25.6986 62.4292 25.2123C62.0367 24.726 61.5064 24.4828 60.8384 24.4828C60.1411 24.4828 59.6079 24.6645 59.2388 25.0277C58.8697 25.3852 58.6851 25.8861 58.6851 26.5307C58.6851 27.1283 58.8784 27.6059 59.2652 27.9633C59.6577 28.3148 60.2993 28.6371 61.19 28.9301C62.0865 29.2172 62.7837 29.5365 63.2818 29.8881C63.7857 30.2338 64.1548 30.6381 64.3892 31.101C64.6294 31.5639 64.7495 32.1059 64.7495 32.727C64.7495 33.7172 64.4507 34.5141 63.8531 35.1176C63.2613 35.7211 62.4292 36.0785 61.357 36.1898V37.8686H60.0562V36.1898C58.9663 36.0902 58.1109 35.7035 57.4898 35.0297C56.8745 34.35 56.5669 33.4301 56.5669 32.2699H58.1929C58.1929 33.0844 58.4068 33.7113 58.8345 34.1508C59.2622 34.5902 59.8687 34.81 60.6538 34.81C61.4214 34.81 62.0249 34.6254 62.4644 34.2563C62.9038 33.8871 63.1236 33.3832 63.1236 32.7445Z" fill="#8D8BA9"/>
</svg>
