<svg width="76" height="67" viewBox="0 0 76 67" fill="none" xmlns="http://www.w3.org/2000/svg">
<rect x="7" y="23" width="40" height="33" fill="white"/>
<rect y="21" width="55" height="2" fill="#9898AC"/>
<rect x="9" width="36" height="21" fill="#9898AC"/>
<path d="M31 10L38.7942 23.5H23.2058L31 10Z" fill="white"/>
<path d="M9 0L12.4641 21.75H5.5359L9 0Z" fill="#9898AC"/>
<path d="M45 0L48.4641 21.75H41.5359L45 0Z" fill="#9898AC"/>
<rect x="13" y="29" width="11" height="11" rx="1" fill="#CFCDF2"/>
<rect x="14" y="30" width="9" height="9" rx="1" fill="#9898AC"/>
<rect x="18" y="30" width="1" height="9" fill="#CFCDF2"/>
<rect x="14" y="34" width="9" height="1" fill="#CFCDF2"/>
<rect x="26" y="43" width="9" height="13" fill="#C4C4C4"/>
<line y1="-0.5" x2="42.0119" y2="-0.5" transform="matrix(-0.0238028 0.999717 -0.999879 -0.0155307 50 24)" stroke="#8D8BA9"/>
<line y1="-0.5" x2="42.0119" y2="-0.5" transform="matrix(-0.0238028 0.999717 -0.999879 -0.0155307 61 24)" stroke="#8D8BA9"/>
<circle cx="55.5" cy="44.5" r="18.5" fill="#9898AC"/>
<path d="M56.7148 47.2598C56.7148 46.7259 56.5651 46.3027 56.2656 45.9902C55.9727 45.6712 55.4714 45.3783 54.7617 45.1113C54.0521 44.8444 53.4401 44.5807 52.9258 44.3203C52.4115 44.0534 51.9688 43.7507 51.5977 43.4121C51.2331 43.0671 50.9466 42.6634 50.7383 42.2012C50.5365 41.7389 50.4355 41.1888 50.4355 40.5508C50.4355 39.4505 50.7871 38.5488 51.4902 37.8457C52.1934 37.1426 53.1276 36.7324 54.293 36.6152V34.5254H55.8555V36.6445C57.0078 36.8073 57.9095 37.2891 58.5605 38.0898C59.2116 38.8841 59.5371 39.916 59.5371 41.1855H56.7148C56.7148 40.4043 56.5521 39.8216 56.2266 39.4375C55.9076 39.0469 55.4779 38.8516 54.9375 38.8516C54.4036 38.8516 53.9902 39.0046 53.6973 39.3105C53.4043 39.61 53.2578 40.0267 53.2578 40.5605C53.2578 41.0553 53.401 41.4525 53.6875 41.752C53.974 42.0514 54.5046 42.3574 55.2793 42.6699C56.0605 42.9824 56.7018 43.2786 57.2031 43.5586C57.7044 43.832 58.1276 44.1445 58.4727 44.4961C58.8177 44.8411 59.0814 45.2383 59.2637 45.6875C59.446 46.1302 59.5371 46.6478 59.5371 47.2402C59.5371 48.347 59.1921 49.2454 58.502 49.9355C57.8118 50.6257 56.8613 51.0326 55.6504 51.1562V53.0996H54.0977V51.166C52.763 51.0228 51.7279 50.5508 50.9922 49.75C50.263 48.9427 49.8984 47.8717 49.8984 46.5371H52.7207C52.7207 47.3118 52.903 47.9076 53.2676 48.3242C53.6387 48.7344 54.1693 48.9395 54.8594 48.9395C55.4323 48.9395 55.8848 48.7897 56.2168 48.4902C56.5488 48.1842 56.7148 47.7741 56.7148 47.2598Z" fill="white"/>
<line x1="58.4489" y1="57.0689" x2="61.542" y2="52.1259" stroke="#CFCDF2"/>
<line x1="61.2294" y1="52.3696" x2="65.2643" y2="53.6806" stroke="#CFCDF2"/>
<line x1="64.9051" y1="54.0325" x2="69.6489" y2="46.7277" stroke="#CFCDF2"/>
<path d="M71.3356 44.3263L70.3948 49.161L67.1141 46.8639L71.3356 44.3263Z" fill="#CFCDF2"/>
</svg>
