<svg width="102" height="70" viewBox="0 0 102 70" fill="none" xmlns="http://www.w3.org/2000/svg">
<ellipse cx="29.5" cy="18.5" rx="23.5" ry="18.5" fill="#F5F5F5"/>
<rect x="4" y="23" width="51" height="38" fill="#F5F5F5"/>
<rect y="5" width="8" height="56" fill="#9898AC"/>
<rect x="51" y="5" width="8" height="56" fill="#9898AC"/>
<rect x="5" y="16" width="48" height="3" fill="#9898AC"/>
<rect x="26" y="46" width="8" height="15" fill="#C4C4C4"/>
<rect x="18" y="24" width="4" height="11" fill="#C4C4C4"/>
<rect x="38" y="24" width="4" height="11" fill="#C4C4C4"/>
<rect x="28" y="24" width="4" height="11" fill="#C4C4C4"/>
<path d="M17.8252 14V6.89062H20.1494C20.9209 6.89062 21.5003 7.05013 21.8877 7.36914C22.2783 7.68815 22.4736 8.16016 22.4736 8.78516C22.4736 9.11719 22.3792 9.41178 22.1904 9.66895C22.0016 9.92285 21.7445 10.1198 21.4189 10.2598C21.8031 10.3672 22.1058 10.5723 22.3271 10.875C22.5518 11.1745 22.6641 11.5326 22.6641 11.9492C22.6641 12.5872 22.4574 13.0885 22.0439 13.4531C21.6305 13.8177 21.0462 14 20.291 14H17.8252ZM18.7627 10.6748V13.2334H20.3105C20.7467 13.2334 21.0902 13.1211 21.3408 12.8965C21.5947 12.6686 21.7217 12.3561 21.7217 11.959C21.7217 11.1029 21.2562 10.6748 20.3252 10.6748H18.7627ZM18.7627 9.92285H20.1787C20.5889 9.92285 20.916 9.82031 21.1602 9.61523C21.4076 9.41016 21.5312 9.13184 21.5312 8.78027C21.5312 8.38965 21.4173 8.10645 21.1895 7.93066C20.9616 7.75163 20.6149 7.66211 20.1494 7.66211H18.7627V9.92285ZM27.9814 12.1445H25.0029L24.334 14H23.3672L26.082 6.89062H26.9023L29.6221 14H28.6602L27.9814 12.1445ZM25.2861 11.373H27.7031L26.4922 8.04785L25.2861 11.373ZM36.043 14H35.1006L31.5215 8.52148V14H30.5791V6.89062H31.5215L35.1104 12.3936V6.89062H36.043V14ZM39.5146 10.6943L38.6455 11.5977V14H37.708V6.89062H38.6455V10.4062L41.8047 6.89062H42.9375L40.1396 10.0303L43.1572 14H42.0342L39.5146 10.6943Z" fill="#C4C4C4"/>
<rect x="-2.12132" width="21.8129" height="44.558" transform="matrix(-0.707107 -0.707107 -0.707107 0.707107 97.9817 34.8714)" fill="#CFCDF2" stroke="#8D8BA9" stroke-width="3"/>
<circle r="3.10161" transform="matrix(-0.707107 -0.707107 -0.707107 0.707107 84.0577 23.2124)" fill="#8D8BA9"/>
<circle r="3.10161" transform="matrix(-0.707107 -0.707107 -0.707107 0.707107 67.9744 65.6136)" fill="#8D8BA9"/>
<circle r="3.10161" transform="matrix(-0.707107 -0.707107 -0.707107 0.707107 54.8154 52.4547)" fill="#8D8BA9"/>
<circle r="3.10161" transform="matrix(-0.707107 -0.707107 -0.707107 0.707107 97.2167 36.3714)" fill="#8D8BA9"/>
<path d="M72.4339 45.1281C72.8151 44.747 73.2708 44.5605 73.8012 44.5688C74.3273 44.573 75.013 44.7863 75.8583 45.2089C77.0101 45.8221 78.0044 46.1163 78.8414 46.0914C79.6783 46.0583 80.4303 45.7082 81.0973 45.0411C81.7768 44.3616 82.1373 43.6076 82.1787 42.7789C82.216 41.9462 81.9301 41.1424 81.3211 40.3676L82.6821 39.0066L81.7561 38.0806L80.3888 39.4478C79.5975 38.847 78.7647 38.5985 77.8905 38.702C77.0121 38.8015 76.1483 39.2759 75.2989 40.1252L76.4424 41.2687C77.0266 40.6846 77.6295 40.3593 78.251 40.293C78.8724 40.2267 79.4193 40.4297 79.8917 40.9021C80.3847 41.3951 80.6333 41.9006 80.6374 42.4185C80.6457 42.9322 80.422 43.417 79.9662 43.8728C79.5436 44.2954 79.0692 44.4963 78.543 44.4756C78.0169 44.4466 77.3353 44.2208 76.4984 43.7982C75.6614 43.3673 74.9426 43.1 74.3418 42.9965C73.7411 42.8846 73.1942 42.9095 72.7011 43.071C72.2039 43.2285 71.7358 43.5268 71.2966 43.966C70.5964 44.6662 70.2442 45.441 70.2401 46.2903C70.2318 47.1355 70.5674 47.9766 71.2469 48.8135L70.0598 50.0005L70.9796 50.9203L72.1667 49.7333C73.0077 50.4335 73.8861 50.765 74.8017 50.7277C75.7174 50.6821 76.5854 50.2491 77.4057 49.4288L76.256 48.279C75.6801 48.855 75.0855 49.147 74.4724 49.1553C73.8592 49.1636 73.275 48.8902 72.7198 48.335C72.177 47.7922 71.8808 47.235 71.8311 46.6632C71.7813 46.0914 71.9823 45.5798 72.4339 45.1281Z" fill="#8D8BA9"/>
<rect x="-2.05831" y="0.513194" width="21.8129" height="44.558" transform="matrix(-0.857167 -0.515038 -0.515038 0.857167 91.2037 27.3657)" fill="#CFCDF2" stroke="#8D8BA9" stroke-width="3"/>
<circle r="3.10161" transform="matrix(-0.857167 -0.515038 -0.515038 0.857167 74.5544 19.829)" fill="#8D8BA9"/>
<circle r="3.10161" transform="matrix(-0.857167 -0.515038 -0.515038 0.857167 69.2067 64.8616)" fill="#8D8BA9"/>
<circle r="3.10161" transform="matrix(-0.857167 -0.515038 -0.515038 0.857167 53.2551 55.2769)" fill="#8D8BA9"/>
<circle r="3.10161" transform="matrix(-0.857167 -0.515038 -0.515038 0.857167 90.506 29.4137)" fill="#8D8BA9"/>
<path d="M68.5481 43.6639C68.8257 43.2018 69.2228 42.9106 69.7394 42.7904C70.251 42.6671 70.9679 42.7083 71.8903 42.9138C73.1562 43.2302 74.1922 43.275 74.9983 43.0484C75.8023 42.8138 76.4473 42.2922 76.9331 41.4836C77.428 40.6599 77.5954 39.841 77.4351 39.027C77.2698 38.2099 76.798 37.4992 76.0196 36.8947L77.0109 35.2449L75.8884 34.5704L74.8925 36.2278C73.9793 35.8363 73.1112 35.7966 72.288 36.1086C71.4598 36.4176 70.7363 37.0868 70.1177 38.1165L71.5039 38.9494C71.9294 38.2412 72.4356 37.7798 73.0226 37.5651C73.6096 37.3504 74.1894 37.4151 74.7619 37.7591C75.3596 38.1183 75.7231 38.5486 75.8524 39.0501C75.9847 39.5466 75.8849 40.0711 75.553 40.6235C75.2452 41.1358 74.8335 41.4456 74.3179 41.5528C73.8003 41.6519 73.0844 41.5977 72.1701 41.3901C71.2538 41.1745 70.4916 41.0891 69.8836 41.1339C69.2737 41.1707 68.749 41.3272 68.3097 41.6032C67.8654 41.8763 67.4833 42.279 67.1634 42.8114C66.6534 43.6602 66.4991 44.4971 66.7006 45.3223C66.897 46.1444 67.4261 46.8793 68.2879 47.527L67.4233 48.9659L68.5383 49.6358L69.4029 48.1969C70.3883 48.6728 71.3208 48.7819 72.2002 48.5243C73.0777 48.2585 73.8151 47.6284 74.4127 46.634L73.0189 45.7965C72.5994 46.4947 72.0932 46.9219 71.5002 47.0783C70.9073 47.2347 70.2743 47.1107 69.6013 46.7063C68.9433 46.311 68.5211 45.8419 68.3345 45.2992C68.1479 44.7564 68.2191 44.2113 68.5481 43.6639Z" fill="#8D8BA9"/>
<rect x="-1.85535" y="1.02844" width="21.8129" height="44.558" transform="matrix(-0.961262 -0.275637 -0.275637 0.961262 80.8022 20.3678)" fill="#CFCDF2" stroke="#8D8BA9" stroke-width="3"/>
<circle r="3.10161" transform="matrix(-0.961262 -0.275637 -0.275637 0.961262 62.4325 17.8363)" fill="#8D8BA9"/>
<circle r="3.10161" transform="matrix(-0.961262 -0.275637 -0.275637 0.961262 68.9223 62.7186)" fill="#8D8BA9"/>
<circle r="3.10161" transform="matrix(-0.961262 -0.275637 -0.275637 0.961262 51.0336 57.5892)" fill="#8D8BA9"/>
<circle r="3.10161" transform="matrix(-0.961262 -0.275637 -0.275637 0.961262 80.3212 22.9659)" fill="#8D8BA9"/>
<path d="M62.7656 42.1548C62.9142 41.6366 63.2224 41.2526 63.6903 41.0027C64.1525 40.7512 64.8557 40.6054 65.7998 40.5653C67.1045 40.5432 68.1168 40.3184 68.8367 39.8909C69.5527 39.4562 70.0406 38.7854 70.3007 37.8786C70.5655 36.9549 70.5152 36.1206 70.1497 35.3758C69.7786 34.6293 69.1389 34.0649 68.2306 33.6825L68.7611 31.8323L67.5023 31.4713L66.9693 33.33C65.9859 33.1882 65.137 33.3746 64.4226 33.889C63.7026 34.4018 63.1771 35.2355 62.846 36.3901L64.4005 36.8359C64.6282 36.0417 64.9978 35.465 65.5092 35.1057C66.0207 34.7464 66.5974 34.6589 67.2395 34.843C67.9098 35.0352 68.3722 35.3568 68.627 35.8077C68.8833 36.253 68.9226 36.7855 68.745 37.405C68.5802 37.9795 68.2627 38.3853 67.7925 38.6223C67.3182 38.852 66.6126 38.9849 65.6757 39.0211C64.7348 39.05 63.9766 39.1647 63.4009 39.3654C62.8212 39.5588 62.355 39.8457 62.0021 40.226C61.6435 40.6048 61.3787 41.0927 61.2075 41.6897C60.9345 42.6416 61.0022 43.49 61.4103 44.2348C61.8128 44.9781 62.5141 45.551 63.5141 45.9536L63.0514 47.5673L64.3018 47.9258L64.7645 46.3121C65.8396 46.5168 66.7685 46.3808 67.5513 45.9043C68.3301 45.4205 68.8793 44.621 69.1991 43.5058L67.6361 43.0576C67.4116 43.8405 67.0332 44.3843 66.5009 44.6888C65.9686 44.9933 65.3251 45.0374 64.5704 44.821C63.8325 44.6094 63.3033 44.2656 62.9826 43.7896C62.6619 43.3137 62.5896 42.7687 62.7656 42.1548Z" fill="#8D8BA9"/>
<rect x="-1.5" y="1.5" width="21.8129" height="44.558" transform="matrix(-1 0 0 1 66.8128 20.634)" fill="#CFCDF2" stroke="#8D8BA9" stroke-width="3"/>
<circle r="3.10161" transform="matrix(-1 0 0 1 48.1015 23.7356)" fill="#8D8BA9"/>
<circle r="3.10161" transform="matrix(-1 0 0 1 66.7112 65.0904)" fill="#8D8BA9"/>
<circle r="3.10161" transform="matrix(-1 0 0 1 48.1015 65.0904)" fill="#8D8BA9"/>
<circle r="3.10161" transform="matrix(-1 0 0 1 66.7112 23.7356)" fill="#8D8BA9"/>
<path d="M59.7266 46.7445C59.7266 46.2055 59.5362 45.7514 59.1553 45.3822C58.7803 45.0131 58.1446 44.6791 57.2481 44.3803C56 43.9994 55.0889 43.5043 54.5147 42.8949C53.9463 42.2797 53.6621 41.5004 53.6621 40.557C53.6621 39.5961 53.9405 38.808 54.4971 38.1928C55.0596 37.5775 55.8301 37.2113 56.8086 37.0941V35.1693H58.1182V37.1029C59.1026 37.2377 59.8672 37.6508 60.4121 38.3422C60.9629 39.0336 61.2383 39.9799 61.2383 41.1811H59.6211C59.6211 40.3549 59.4248 39.6986 59.0323 39.2123C58.6397 38.726 58.1094 38.4828 57.4414 38.4828C56.7442 38.4828 56.211 38.6645 55.8418 39.0277C55.4727 39.3852 55.2881 39.8861 55.2881 40.5307C55.2881 41.1283 55.4815 41.6059 55.8682 41.9633C56.2608 42.3148 56.9024 42.6371 57.793 42.9301C58.6895 43.2172 59.3867 43.5365 59.8848 43.8881C60.3887 44.2338 60.7578 44.6381 60.9922 45.101C61.2325 45.5639 61.3526 46.1059 61.3526 46.727C61.3526 47.7172 61.0537 48.5141 60.4561 49.1176C59.8643 49.7211 59.0323 50.0785 57.96 50.1898V51.8686H56.6592V50.1898C55.5694 50.0902 54.7139 49.7035 54.0928 49.0297C53.4776 48.35 53.17 47.4301 53.17 46.2699H54.7959C54.7959 47.0844 55.0098 47.7113 55.4375 48.1508C55.8653 48.5902 56.4717 48.81 57.2569 48.81C58.0244 48.81 58.628 48.6254 59.0674 48.2563C59.5069 47.8871 59.7266 47.3832 59.7266 46.7445Z" fill="#8D8BA9"/>
</svg>
